<svg width="256" height="256" viewBox="0 0 256 256" fill="none" xmlns="http://www.w3.org/2000/svg">
<g clip-path="url(#clip0_3_227)">
<ellipse cx="116.615" cy="131.615" rx="114.615" ry="114.615" fill="#515767"/>
<path d="M77.927 88.5328C78.8802 89.2635 81.7396 91.1075 84.2108 92.6036C88.1293 94.9695 88.8 95.5262 89.3296 96.7092C89.8238 97.8573 90.2827 98.2401 92.1537 99.0751C93.3893 99.6318 94.6602 100.397 95.0132 100.78C95.3662 101.163 96.39 101.754 97.2725 102.067C98.9317 102.694 117.465 114.767 125.902 120.716C127.067 121.551 129.221 122.908 130.633 123.743C132.045 124.543 134.869 126.388 136.917 127.779C142 131.328 147.966 135.294 150.508 136.86C151.673 137.591 153.438 138.843 154.391 139.644C156.403 141.314 157.427 141.905 158.345 141.905C158.698 141.905 159.369 142.253 159.863 142.636C160.357 143.019 161.593 143.888 162.616 144.549C163.676 145.21 164.876 146.08 165.264 146.463C165.688 146.846 167.065 147.82 168.3 148.62L170.524 150.081L170.312 152.065C170.065 154.674 166.57 166.504 165.158 169.565C163.252 173.775 162.546 175.028 161.699 175.585C160.145 176.594 146.201 175.445 144.154 174.123C143.695 173.845 141.718 171.792 139.776 169.6C137.799 167.408 136.069 165.564 135.928 165.495C135.469 165.286 126.75 155.683 125.902 154.431C125.443 153.77 124.208 152.587 123.149 151.786C122.055 150.986 119.372 148.342 117.148 145.906C114.923 143.471 112.099 140.583 110.899 139.504C109.699 138.426 106.486 135.121 103.697 132.163C100.944 129.206 95.3309 123.395 91.2006 119.29C87.0702 115.184 83.4694 111.461 83.2223 111.079C82.9399 110.661 78.6331 106.208 73.5849 101.163C65.2536 92.8123 63.665 91.0031 64.0533 90.3769C64.1239 90.2377 64.7241 90.0289 65.4301 89.9246C66.1009 89.7854 68.0425 89.0547 69.737 88.2893C73.7614 86.5148 75.3147 86.5496 77.927 88.5328ZM153.05 88.8808C154.109 89.3679 156.156 90.516 157.639 91.4902L160.322 93.1951L160.251 96.1873C160.181 98.1705 159.863 100.223 159.298 102.206C158.804 103.842 158.31 106.521 158.204 108.156C158.098 109.791 157.851 111.461 157.71 111.879C157.251 113.062 155.697 112.923 153.862 111.531C153.014 110.939 150.932 109.478 149.237 108.33C145.283 105.651 140.623 102.241 137.623 99.8057C136.317 98.762 134.41 97.2659 133.386 96.5004C131.127 94.8304 130.209 93.9953 130.209 93.6126C130.209 93.4734 134.128 92.3601 138.964 91.1423C143.765 89.9246 148.249 88.7416 148.919 88.498C150.684 87.837 150.932 87.8718 153.05 88.8808ZM83.2576 153.248C90.0709 159.823 94.0953 163.581 96.4959 165.599C99.6024 168.209 102.427 171.131 102.109 171.444C101.932 171.618 100.909 172.001 99.8496 172.349C98.7905 172.697 97.3431 173.254 96.6371 173.601C95.9663 173.915 94.3777 174.402 93.1069 174.61C91.8713 174.819 89.8238 175.445 88.5529 176.002C85.8347 177.185 82.8693 177.568 79.1626 177.22C76.5149 176.976 76.409 176.942 74.4321 175.132C73.3378 174.123 70.9725 172.245 69.1721 170.957L65.9244 168.556L66.0656 166.295C66.1362 164.625 66.5598 163.198 67.4423 161.215C68.1484 159.684 69.7017 156.066 70.9019 153.213C72.1375 150.325 73.4437 147.298 73.832 146.498L74.5027 144.967L75.5971 145.941C76.2325 146.498 79.6568 149.768 83.2576 153.248Z" fill="#EDF3FC"/>
<path d="M227.638 28.1417L125.865 28.111C118.512 30.1414 117.191 32.7381 116.432 38.2014C116.797 46.0698 119.519 47.2319 125.872 48.9703C158.469 56.9653 172.447 65.7812 187.216 85.9971C203.49 108.798 202.063 147.234 196.673 155.979C196.001 162.708 196.982 167.416 203.417 169.439C210.688 171.389 213.639 168.193 216.895 162.042L253.26 60.4476C258.648 46.9916 241.118 28.1457 227.638 28.1417Z" fill="#FF5B32"/>
<path d="M198.817 76.003L189.258 76.0001C190.37 72.7875 190.781 69.9763 190.78 65.5139L190.775 49.9402C190.774 45.5224 190.278 42.7556 189 39.5869C191.349 39.4091 194.686 39.2316 197.24 39.2324C211.371 39.2366 219.037 46.6465 219.04 57.4901C219.043 69.2708 210.352 76.0064 198.817 76.003ZM198.98 70.5589C205.819 70.1593 211.173 66.0555 211.171 57.8894C211.169 50.1694 206.1 45.0808 198.89 44.677C198.725 46.4173 198.643 48.2022 198.644 51.2366L198.648 63.4636C198.649 66.5426 198.773 68.8185 198.98 70.5589Z" fill="#EDF3FC"/>
<path d="M240.134 76.0086L219.04 76.0023L219.04 75.7792C219.205 75.5561 227.482 62.3945 230.488 57.1298C232.506 53.6051 233 52.1327 232.999 50.3031C232.998 47.8042 231.721 46.4651 230.073 46.4646C228.095 46.464 226.942 48.3825 226.943 51.0599C226.943 51.9524 227.067 53.1126 227.356 53.9606L227.232 54.0498L220.062 49.9868C220.021 49.7191 220.021 49.4513 220.021 49.1836C220.019 43.2486 224.797 39.0108 230.895 39.0126C236.827 39.0144 241.154 43.2104 241.156 49.1007C241.157 53.1169 239.181 56.4631 236.669 60.4785L231.151 69.357C236.342 69.3585 240.626 68.5566 243.551 65.88L243.674 65.8801L240.134 76.0086Z" fill="#EDF3FC"/>
<path fill-rule="evenodd" clip-rule="evenodd" d="M116.827 235.308C159.292 235.308 195.803 209.857 211.89 173.401C201.777 176.077 196.383 174.058 191.877 165.308C179.003 193.877 150.242 213.769 116.827 213.769C71.4003 213.769 34.5745 177.005 34.5745 131.654C34.5745 86.3028 71.4003 49.5385 116.827 49.5385C107.388 44.1538 109.411 31.3654 116.827 28C59.4851 28 13 74.4074 13 131.654C13 188.9 59.4851 235.308 116.827 235.308Z" fill="#EDF3FC"/>
</g>
<defs>
<clipPath id="clip0_3_227">
<rect width="256" height="256" fill="white"/>
</clipPath>
</defs>
</svg>
